<svg xmlns="http://www.w3.org/2000/svg" xmlns:xlink="http://www.w3.org/1999/xlink" viewBox="0 0 435.18 154.94"><defs><style>.cls-1{fill:#383737;}.cls-2{fill:#1d1d1b;}.cls-3{fill:#ef6600;stroke:#ef6600;stroke-miterlimit:10;stroke-width:0.5px;}.cls-4{fill:url(#linear-gradient);}.cls-5{fill:url(#linear-gradient-2);}.cls-6{fill:url(#linear-gradient-3);}</style><linearGradient id="linear-gradient" x1="65.57" y1="102.31" x2="128.59" y2="102.31" gradientUnits="userSpaceOnUse"><stop offset="0" stop-color="#ef8118"></stop><stop offset="1" stop-color="#e5321c"></stop></linearGradient><linearGradient id="linear-gradient-2" x1="10.8" y1="126.58" x2="75.39" y2="126.58" gradientUnits="userSpaceOnUse"><stop offset="0" stop-color="#6c6c6c"></stop><stop offset="1" stop-color="#a5a4a4"></stop></linearGradient><linearGradient id="linear-gradient-3" y1="52.61" x2="105.23" y2="52.61" gradientTransform="translate(-21.79 52.61) rotate(-45)" gradientUnits="userSpaceOnUse"><stop offset="0" stop-color="#585958"></stop><stop offset="1" stop-color="#262626"></stop></linearGradient></defs><g id="Layer_2" data-name="Layer 2"><g id="Layer_2-2" data-name="Layer 2"><path class="cls-1" d="M208.09,57.25a33.92,33.92,0,0,1-4.67,17.24,35.49,35.49,0,0,1-5.35,6.91A33.8,33.8,0,0,1,183,90.22a33.72,33.72,0,0,1-9.08,1.22H153.3V23.05h20.6a34,34,0,0,1,24.17,10A35.55,35.55,0,0,1,203.42,40a33.85,33.85,0,0,1,4.67,17.24Zm-13.69,0a20.08,20.08,0,0,0-1.59-8,20.61,20.61,0,0,0-10.93-10.92,19.84,19.84,0,0,0-8-1.62h-6.82v41h6.82a20.16,20.16,0,0,0,8-1.59,20.43,20.43,0,0,0,10.93-10.92A20.24,20.24,0,0,0,194.4,57.25Z"></path><path class="cls-1" d="M231.12,26.49a8.27,8.27,0,0,1-.69,3.38,8.79,8.79,0,0,1-1.88,2.75,9.21,9.21,0,0,1-2.79,1.86,8.77,8.77,0,0,1-6.82,0,8.76,8.76,0,0,1-2.77-1.86,8.9,8.9,0,0,1-1.86-2.75,8.57,8.57,0,0,1,0-6.74,8.65,8.65,0,0,1,4.63-4.63,8.77,8.77,0,0,1,6.82,0,9.21,9.21,0,0,1,2.79,1.86,8.65,8.65,0,0,1,1.88,2.77A8.35,8.35,0,0,1,231.12,26.49Zm-2.24,65H215.77V40.37h13.11Z"></path><path class="cls-1" d="M251.91,91.44H238.8V20.05h13.11Z"></path><path class="cls-1" d="M277.19,26.49a8.27,8.27,0,0,1-.69,3.38,8.65,8.65,0,0,1-1.89,2.75,9,9,0,0,1-2.79,1.86,8.77,8.77,0,0,1-6.82,0,8.73,8.73,0,0,1-4.62-4.61,8.57,8.57,0,0,1,0-6.74A8.68,8.68,0,0,1,265,18.5a8.77,8.77,0,0,1,6.82,0,9,9,0,0,1,2.79,1.86,8.52,8.52,0,0,1,1.89,2.77A8.35,8.35,0,0,1,277.19,26.49Zm-2.24,65H261.83V40.37H275Z"></path><path class="cls-1" d="M334.32,85a25.24,25.24,0,0,1-2.05,10.11,26.36,26.36,0,0,1-5.6,8.25,26.82,26.82,0,0,1-8.3,5.58,25.25,25.25,0,0,1-10.14,2l-6.53-.09v-13l6.44.09a15.31,15.31,0,0,0,5.2-.78,10.55,10.55,0,0,0,6-5.27,19.81,19.81,0,0,0,1.41-3.72,5.75,5.75,0,0,1-2.2,2,14.81,14.81,0,0,1-3.17,1.29,20.33,20.33,0,0,1-3.62.69,34.27,34.27,0,0,1-3.51.19,27.49,27.49,0,0,1-10.13-1.86,24.14,24.14,0,0,1-13.9-13.78,29.52,29.52,0,0,1-2.05-11.3,27.75,27.75,0,0,1,2.05-10.73,26.57,26.57,0,0,1,5.6-8.58,25.93,25.93,0,0,1,8.3-5.68,25.2,25.2,0,0,1,10.13-2.05,20,20,0,0,1,4.92.62,25.44,25.44,0,0,1,4.72,1.72,29.86,29.86,0,0,1,4.36,2.57,36.57,36.57,0,0,1,3.89,3.2l5.05-6.06h3.15ZM321.21,65.45a13.55,13.55,0,0,0-1-5.17,14.77,14.77,0,0,0-2.79-4.44,13.84,13.84,0,0,0-4.13-3.1,11.16,11.16,0,0,0-5-1.17,13.81,13.81,0,0,0-5,.91,11.38,11.38,0,0,0-4.1,2.67,12.61,12.61,0,0,0-2.74,4.36,16.37,16.37,0,0,0-1,5.94,15.62,15.62,0,0,0,1,5.75,13.2,13.2,0,0,0,2.74,4.36,12,12,0,0,0,4.1,2.79,13.07,13.07,0,0,0,5,1,11.16,11.16,0,0,0,5-1.17,13.84,13.84,0,0,0,4.13-3.1,14.77,14.77,0,0,0,2.79-4.44A13.59,13.59,0,0,0,321.21,65.45Z"></path><path class="cls-1" d="M393.59,65.45a27.47,27.47,0,0,1-2,10.66A26.4,26.4,0,0,1,386,84.64a26.06,26.06,0,0,1-8.27,5.68,25.94,25.94,0,0,1-20.31,0,26.22,26.22,0,0,1-13.91-14.21,27.66,27.66,0,0,1-2.05-10.66,28.08,28.08,0,0,1,2.05-10.78,26.5,26.5,0,0,1,5.61-8.56,26.06,26.06,0,0,1,8.3-5.65,25.2,25.2,0,0,1,10.13-2.05,26.69,26.69,0,0,1,10.18,1.93A24.62,24.62,0,0,1,386,45.83a25.67,25.67,0,0,1,5.58,8.53A28.83,28.83,0,0,1,393.59,65.45Zm-13.11,0a15.23,15.23,0,0,0-1-5.7,13.84,13.84,0,0,0-2.79-4.39,12.17,12.17,0,0,0-4.13-2.81,13.4,13.4,0,0,0-10.06,0,11.77,11.77,0,0,0-4.1,2.81,13.58,13.58,0,0,0-2.75,4.39,15.64,15.64,0,0,0-1,5.7,14.87,14.87,0,0,0,1,5.48,13.79,13.79,0,0,0,2.75,4.39,12.66,12.66,0,0,0,4.1,2.93,11.93,11.93,0,0,0,5,1.08,12.86,12.86,0,0,0,5-1,12.64,12.64,0,0,0,4.13-2.82,13.41,13.41,0,0,0,2.79-4.39A15.22,15.22,0,0,0,380.48,65.45Z"></path><path class="cls-1" d="M413.81,91.44h-13V40.37h3.14l4.29,6.05a23.06,23.06,0,0,1,15.46-6h11.49v13H423.69a9.86,9.86,0,0,0-3.87.77,9.62,9.62,0,0,0-5.24,5.24,9.85,9.85,0,0,0-.77,3.86Z"></path><path class="cls-2" d="M153.27,133.81,158,122.09h2.38L165,133.81h-2.44l-.88-2.28h-5.13l-.86,2.28Zm4-4.16h3.79l-1.9-5Z"></path><path class="cls-2" d="M166.26,128.71v-6.62h2.29v6.62c0,1.76.92,3.07,2.73,3.07s2.72-1.31,2.72-3.07v-6.62h2.3v6.62c0,3-1.87,5.28-5,5.28S166.26,131.76,166.26,128.71Z"></path><path class="cls-2" d="M179.27,133.81V122.09h4.3c3.69,0,6.07,2.42,6.07,5.86s-2.38,5.86-6.07,5.86Zm2.29-2h1.83a3.68,3.68,0,0,0,3.89-3.85,3.64,3.64,0,0,0-3.89-3.85h-1.83Z"></path><path class="cls-2" d="M192.11,133.81V122.09h2.28v11.72Z"></path><path class="cls-2" d="M200,133.81V124.1H196.5v-2h9.34v2h-3.52v9.71Z"></path><path class="cls-3" d="M211.76,136.31V120.39h2.09v15.92Z"></path><path class="cls-2" d="M220.58,128a5.76,5.76,0,0,1,6-6,5.57,5.57,0,0,1,4,1.45l-1.33,1.74a3.82,3.82,0,0,0-2.58-1,3.8,3.8,0,0,0,0,7.6,3.77,3.77,0,0,0,2.58-1l1.33,1.72a5.49,5.49,0,0,1-4,1.47A5.79,5.79,0,0,1,220.58,128Z"></path><path class="cls-2" d="M231.64,128a5.94,5.94,0,1,1,5.92,6A5.82,5.82,0,0,1,231.64,128Zm9.51,0a3.58,3.58,0,1,0-3.59,3.83A3.59,3.59,0,0,0,241.15,128Z"></path><path class="cls-2" d="M257.48,133.81h-2.27v-7.48l-3,4h-.88l-3-4v7.46H246l0-11.72h1.79l4,5.32,3.94-5.32h1.78Z"></path><path class="cls-2" d="M260.61,133.81V122.09h5c2.71,0,4.49,1.55,4.49,3.93s-1.8,4-4.51,4h-2.66v3.81Zm2.28-5.8h2.56c1.33,0,2.27-.62,2.27-2s-.94-1.94-2.29-1.94h-2.54Z"></path><path class="cls-2" d="M274.59,133.81V124.1h-3.53v-2h9.33v2h-3.51v9.71Z"></path><path class="cls-2" d="M279.89,133.81l4.68-11.72H287l4.68,11.72H289.2l-.88-2.28h-5.13l-.86,2.28Zm4-4.16h3.79l-1.9-5Z"></path><path class="cls-2" d="M293.42,133.81V122.09h5.28c2.65,0,4.06,1.15,4.06,3.19a2.66,2.66,0,0,1-1.55,2.44v.11a2.57,2.57,0,0,1,1.88,2.58c0,2.21-1.62,3.4-4.28,3.4Zm2.29-6.82h2.89c1,0,1.74-.6,1.74-1.42s-.65-1.47-1.7-1.47h-2.93Zm0,4.81h3.14c1,0,1.8-.59,1.8-1.5a1.61,1.61,0,0,0-1.7-1.51h-3.24Z"></path><path class="cls-2" d="M305.59,133.81V122.09h2.29v11.72Z"></path><path class="cls-2" d="M311,133.81V122.09h2.29v9.71h5.56v2Z"></path><path class="cls-2" d="M321,133.81V122.09h2.29v11.72Z"></path><path class="cls-2" d="M328.93,133.81V124.1H325.4v-2h9.33v2h-3.51v9.71Z"></path><path class="cls-2" d="M336.86,133.81V122.09h8.42v2h-6.13v2.84h5.17v1.87h-5.17v3h6.13v2ZM340,121.23l1.74-2.73,2.59.25-2.73,2.48Z"></path><path class="cls-3" d="M352.12,136.31V120.39h2.09v15.92Z"></path><path class="cls-2" d="M361,128a5.75,5.75,0,0,1,5.95-6,5.57,5.57,0,0,1,4,1.45l-1.33,1.74a3.82,3.82,0,0,0-2.58-1,3.8,3.8,0,0,0,0,7.6,3.77,3.77,0,0,0,2.58-1l1.33,1.72a5.47,5.47,0,0,1-4,1.47A5.78,5.78,0,0,1,361,128Z"></path><path class="cls-2" d="M372,128a5.94,5.94,0,1,1,5.92,6A5.82,5.82,0,0,1,372,128Zm9.51,0a3.58,3.58,0,1,0-3.59,3.83A3.59,3.59,0,0,0,381.51,128Z"></path><path class="cls-2" d="M386.32,133.81V122.09h1.76l6.29,7.66v-7.66h2.26v11.72h-1.74l-6.29-7.75v7.75Z"></path><path class="cls-2" d="M399,132.48l1.25-1.75a6.08,6.08,0,0,0,3.3,1.13c1.31,0,1.87-.51,1.87-1.29s-.47-1.15-2.4-1.74c-2.5-.74-3.79-1.7-3.79-3.53,0-2,1.47-3.31,4.32-3.31a6.23,6.23,0,0,1,4.2,1.22l-1.23,1.87a5.08,5.08,0,0,0-3-1c-1.1,0-1.74.4-1.74,1.12s.56,1,2.23,1.52c2.73.78,4,1.8,4,3.65,0,2-1.43,3.6-4.43,3.6A6.8,6.8,0,0,1,399,132.48Z"></path><path class="cls-2" d="M410.4,133.81V122.09h8.42v2h-6.13v2.84h5.17v1.87h-5.17v3h6.13v2Z"></path><path class="cls-2" d="M421.36,133.81V122.09h2.29v11.72Z"></path><path class="cls-2" d="M426.77,133.81V122.09h2.29v9.71h5.56v2Z"></path><path class="cls-4" d="M128.59,101.27a5.78,5.78,0,0,1-1.72,4.14L100.19,132.1a5.86,5.86,0,0,1-8.28,0L82,122.15,67.29,107.49a5.86,5.86,0,0,1,0-8.29L94,72.52a5.86,5.86,0,0,1,8.29,0l24.6,24.61A5.86,5.86,0,0,1,128.59,101.27Z"></path><path class="cls-5" d="M73.67,118.75c-2.31-2.32-4.63-4.64-6.92-7a20.51,20.51,0,0,0-4.06-3.67,5,5,0,0,0-5.37.23,15.31,15.31,0,0,1-3.15,1.6,6.89,6.89,0,0,1-4.85-.56c-4.13-2-7-6.28-10.19-9.44a5.86,5.86,0,0,0-8.29,0L12.51,118.26a5.88,5.88,0,0,0,0,8.29L39.2,153.23a5.85,5.85,0,0,0,8.28,0L73.67,127A5.86,5.86,0,0,0,73.67,118.75Z"></path><rect class="cls-6" x="13.38" y="13.38" width="78.46" height="78.46" rx="6.92" transform="translate(52.61 -21.79) rotate(45)"></rect></g></g></svg>