<?xml version="1.0" encoding="UTF-8"?> <svg xmlns="http://www.w3.org/2000/svg" width="208.058" height="62.35" viewBox="0 0 208.058 62.35"><g id="Artboard_1_copy_3" data-name="Artboard 1 copy 3" transform="translate(-0.03 -0.195)"><g id="Group_145" data-name="Group 145" transform="translate(27.568 49.881)"><path id="Path_347" data-name="Path 347" d="M29.223,56.474V49.922H27.568V49.27h4.02v.652H29.943v6.552Z" transform="translate(-27.568 -49.142)" fill="#000f9f"></path><path id="Path_348" data-name="Path 348" d="M36.335,56.474l-2.444-3.262h.7c1.275,0,2.035-.651,2.035-1.635,0-.682-.418-1.655-2.074-1.655H33.181v6.552h-.72v-7.2h2.171c1.879,0,2.716,1.11,2.716,2.327a2.2,2.2,0,0,1-2.142,2.19l2.034,2.687Z" transform="translate(-27.568 -49.142)" fill="#000f9f"></path><path id="Path_349" data-name="Path 349" d="M44.212,56.474,43.17,54.05H39.822L38.77,56.474h-.75l3.077-7.2H41.9l3.1,7.2Zm-2.706-6.387L40.094,53.4h2.794Z" transform="translate(-27.568 -49.142)" fill="#000f9f"></path><path id="Path_350" data-name="Path 350" d="M50.946,56.474l-4.273-6.338h-.02v6.338h-.721v-7.2h.974l4.02,5.978h.02V49.27h.72v7.2Z" transform="translate(-27.568 -49.142)" fill="#000f9f"></path><path id="Path_351" data-name="Path 351" d="M56.355,51.1a1.3,1.3,0,0,0-1.275-1.3,1.264,1.264,0,0,0-1.3,1.256c0,.613.37.993,1.392,1.256,1.558.4,2.083,1.208,2.083,2.181A2.13,2.13,0,0,1,55.08,56.6a2.1,2.1,0,0,1-2.22-2.143h.72a1.475,1.475,0,0,0,2.95.059c0-.778-.516-1.217-1.46-1.489-1.032-.292-2.015-.633-2.015-1.947a2.012,2.012,0,0,1,4.021.02Z" transform="translate(-27.568 -49.142)" fill="#000f9f"></path><path id="Path_352" data-name="Path 352" d="M58.486,56.474v-7.2h.721v7.2Z" transform="translate(-27.568 -49.142)" fill="#000f9f"></path><path id="Path_353" data-name="Path 353" d="M61.755,56.474V49.922H60.1V49.27h4.02v.652H62.475v6.552Z" transform="translate(-27.568 -49.142)" fill="#000f9f"></path><path id="Path_354" data-name="Path 354" d="M65.023,56.474v-7.2h.721v7.2Z" transform="translate(-27.568 -49.142)" fill="#000f9f"></path><path id="Path_355" data-name="Path 355" d="M70.831,56.6a3.73,3.73,0,1,1,3.816-3.729A3.8,3.8,0,0,1,70.831,56.6Zm-.01-6.806a3.077,3.077,0,1,0,3.105,3.087A3.123,3.123,0,0,0,70.822,49.8Z" transform="translate(-27.568 -49.142)" fill="#000f9f"></path><path id="Path_356" data-name="Path 356" d="M80.941,56.474l-4.273-6.338h-.02v6.338h-.721v-7.2H76.9l4.021,5.978h.02V49.27h.72v7.2Z" transform="translate(-27.568 -49.142)" fill="#000f9f"></path><path id="Path_357" data-name="Path 357" d="M88.79,56.474,87.748,54.05H84.4l-1.052,2.424H82.6l3.076-7.2h.808l3.1,7.2Zm-2.706-6.387L84.672,53.4h2.794Z" transform="translate(-27.568 -49.142)" fill="#000f9f"></path><path id="Path_358" data-name="Path 358" d="M90.546,56.474v-7.2h.72v6.552h2.979v.652Z" transform="translate(-27.568 -49.142)" fill="#000f9f"></path><path id="Path_359" data-name="Path 359" d="M97.624,56.474v-7.2h3.942v.652H98.344v2.59h3.116v.652H98.344v2.657h3.222v.652Z" transform="translate(-27.568 -49.142)" fill="#000f9f"></path><path id="Path_360" data-name="Path 360" d="M107.856,56.474l-4.273-6.338h-.02v6.338h-.721v-7.2h.974l4.02,5.978h.02V49.27h.72v7.2Z" transform="translate(-27.568 -49.142)" fill="#000f9f"></path><path id="Path_361" data-name="Path 361" d="M110.2,56.474v-7.2h3.942v.652h-3.222v2.59h3.115v.652h-3.115v2.657h3.222v.652Z" transform="translate(-27.568 -49.142)" fill="#000f9f"></path><path id="Path_362" data-name="Path 362" d="M119.269,56.474l-2.444-3.262h.7c1.275,0,2.035-.651,2.035-1.635,0-.682-.418-1.655-2.074-1.655h-1.373v6.552h-.72v-7.2h2.171c1.879,0,2.716,1.11,2.716,2.327a2.2,2.2,0,0,1-2.142,2.19l2.035,2.687Z" transform="translate(-27.568 -49.142)" fill="#000f9f"></path><path id="Path_363" data-name="Path 363" d="M123.885,53.817v-.652h4.887a3.776,3.776,0,0,1-3.806,3.437,3.738,3.738,0,1,1,3.4-5.413h-.837a3.019,3.019,0,0,0-2.56-1.393,3.078,3.078,0,1,0,.029,6.153,3.042,3.042,0,0,0,2.911-2.132Z" transform="translate(-27.568 -49.142)" fill="#000f9f"></path><path id="Path_364" data-name="Path 364" d="M131.376,56.474v-2.4l-2.5-4.8h.8l2.054,4.04,2.112-4.04h.788l-2.531,4.8v2.4Z" transform="translate(-27.568 -49.142)" fill="#000f9f"></path></g><g id="Group_146" data-name="Group 146" transform="translate(0.03 17.406)"><path id="Path_365" data-name="Path 365" d="M23.862,35.677a12.89,12.89,0,0,1-11.224,6.814A12.591,12.591,0,1,1,12.6,17.31c4.509,0,9.216,2.6,11.158,6.65H21.031a10.3,10.3,0,0,0-8.459-4.444A10.575,10.575,0,0,0,2.335,29.95a10.607,10.607,0,0,0,10.27,10.336,10.642,10.642,0,0,0,8.525-4.608Z" transform="translate(-0.03 -17.062)" fill="#101820"></path><path id="Path_366" data-name="Path 366" d="M40.161,30.641H29.4V42.063H26.959V17.705H29.4V28.436H40.161ZM42,28.436V17.705h2.436V42.063H42Z" transform="translate(-0.03 -17.062)" fill="#101820"></path><path id="Path_367" data-name="Path 367" d="M62.11,33.867m-.948-2.205.948,2.205H52.772l-3.555,8.2H46.682l10.4-24.358h2.732L70.283,42.063H67.617l-3.522-8.2-.954-2.205L58.466,20.47,53.694,31.662h7.469m0,0" transform="translate(-0.03 -17.062)" fill="#101820"></path><path id="Path_368" data-name="Path 368" d="M85.543,42.063,77.281,31.036h2.37c4.312,0,6.879-2.205,6.879-5.53,0-2.3-1.415-5.6-7.011-5.6H74.878V42.063H72.442V17.705h7.34c6.353,0,9.184,3.752,9.184,7.867a7.441,7.441,0,0,1-7.241,7.406L88.6,42.063Z" transform="translate(-0.03 -17.062)" fill="#101820"></path><path id="Path_369" data-name="Path 369" d="M92.258,42.063V17.705l2.436,1.32V42.063Z" transform="translate(-0.03 -17.062)" fill="#101820"></path><path id="Path_370" data-name="Path 370" d="M110.993,42.491c-6.649,0-12.87-5.4-12.87-12.475a12.888,12.888,0,1,1,25.775-.132,12.843,12.843,0,0,1-12.9,12.607Zm-.033-23.008a10.4,10.4,0,1,0,10.5,10.434,10.558,10.558,0,0,0-10.5-10.434Z" transform="translate(-0.03 -17.062)" fill="#101820"></path><path id="Path_371" data-name="Path 371" d="M128.86,42.063V19.911h-5.6V17.705h13.594v2.205H131.3V42.063Z" transform="translate(-0.03 -17.062)" fill="#101820"></path></g><circle id="Ellipse_1807" data-name="Ellipse 1807" cx="1.141" cy="1.141" r="1.141" transform="translate(145.758 30.229)" fill="#000f9f"></circle><circle id="Ellipse_1808" data-name="Ellipse 1808" cx="1.141" cy="1.141" r="1.141" transform="translate(155.766 40.24)" fill="#54c2ea"></circle><circle id="Ellipse_1809" data-name="Ellipse 1809" cx="2.567" cy="2.567" r="2.567" transform="translate(154.349 28.802)" fill="#000f9f"></circle><circle id="Ellipse_1810" data-name="Ellipse 1810" cx="1.141" cy="1.141" r="1.141" transform="translate(155.766 20.217)" fill="#54c2ea"></circle><circle id="Ellipse_1811" data-name="Ellipse 1811" cx="1.141" cy="1.141" r="1.141" transform="translate(165.774 50.375)" fill="#eeeded"></circle><circle id="Ellipse_1812" data-name="Ellipse 1812" cx="2.567" cy="2.567" r="2.567" transform="translate(164.359 38.82)" fill="#54c2ea"></circle><circle id="Ellipse_1813" data-name="Ellipse 1813" cx="3.851" cy="3.851" r="3.851" transform="translate(163.085 27.519)" fill="#000f9f"></circle><circle id="Ellipse_1814" data-name="Ellipse 1814" cx="2.567" cy="2.567" r="2.567" transform="translate(164.359 18.785)" fill="#54c2ea"></circle><circle id="Ellipse_1815" data-name="Ellipse 1815" cx="1.141" cy="1.141" r="1.141" transform="translate(165.774 10.083)" fill="#eeeded"></circle><circle id="Ellipse_1816" data-name="Ellipse 1816" cx="1.141" cy="1.141" r="1.141" transform="translate(176.142 60.263)" fill="#eeeded"></circle><circle id="Ellipse_1817" data-name="Ellipse 1817" cx="1.141" cy="1.141" r="1.141" transform="translate(176.142 50.375)" fill="#34b8c7"></circle><circle id="Ellipse_1818" data-name="Ellipse 1818" cx="3.851" cy="3.851" r="3.851" transform="translate(173.433 37.543)" fill="#34b8c7"></circle><circle id="Ellipse_1819" data-name="Ellipse 1819" cx="4.332" cy="4.332" r="4.332" transform="translate(172.951 27.038)" fill="#000f9f"></circle><circle id="Ellipse_1820" data-name="Ellipse 1820" cx="3.851" cy="3.851" r="3.851" transform="translate(173.433 17.495)" fill="#34b8c7"></circle><circle id="Ellipse_1821" data-name="Ellipse 1821" cx="1.141" cy="1.141" r="1.141" transform="translate(176.142 10.083)" fill="#34b8c7"></circle><circle id="Ellipse_1822" data-name="Ellipse 1822" cx="1.141" cy="1.141" r="1.141" transform="translate(176.142 0.195)" fill="#eeeded"></circle><circle id="Ellipse_1823" data-name="Ellipse 1823" cx="1.141" cy="1.141" r="1.141" transform="translate(186.03 50.375)" fill="#eeeded"></circle><circle id="Ellipse_1824" data-name="Ellipse 1824" cx="2.567" cy="2.567" r="2.567" transform="translate(184.604 38.82)" fill="#54c2ea"></circle><circle id="Ellipse_1825" data-name="Ellipse 1825" cx="3.851" cy="3.851" r="3.851" transform="translate(183.321 27.519)" fill="#000f9f"></circle><circle id="Ellipse_1826" data-name="Ellipse 1826" cx="2.567" cy="2.567" r="2.567" transform="translate(184.604 18.785)" fill="#54c2ea"></circle><circle id="Ellipse_1827" data-name="Ellipse 1827" cx="1.141" cy="1.141" r="1.141" transform="translate(186.03 10.083)" fill="#eeeded"></circle><circle id="Ellipse_1828" data-name="Ellipse 1828" cx="1.141" cy="1.141" r="1.141" transform="translate(195.918 40.24)" fill="#54c2ea"></circle><circle id="Ellipse_1829" data-name="Ellipse 1829" cx="2.567" cy="2.567" r="2.567" transform="translate(194.492 28.802)" fill="#000f9f"></circle><circle id="Ellipse_1830" data-name="Ellipse 1830" cx="1.141" cy="1.141" r="1.141" transform="translate(195.918 20.217)" fill="#54c2ea"></circle><circle id="Ellipse_1831" data-name="Ellipse 1831" cx="1.141" cy="1.141" r="1.141" transform="translate(205.807 30.229)" fill="#000f9f"></circle></g></svg> 