<svg xmlns="http://www.w3.org/2000/svg" width="209.001" height="76.345" viewBox="0 0 209.001 76.345"><g id="Group_4795" data-name="Group 4795" transform="translate(-305.999 -12.335)"><path id="Path_3935" data-name="Path 3935" d="M73.541,65.982c0-.209,0-.416-.015-.625a29.511,29.511,0,0,0-4.173-13.782,66.348,66.348,0,0,0-9.641-11.6c-1.666-1.7-3.432-3.506-5.069-5.316A46.14,46.14,0,0,1,51.4,30.656a38.536,38.536,0,0,1-3.762-6.418,37.749,37.749,0,0,1-2.492-7.3c0-.015-.03-.018-.041,0-.622.783-1.323,1.616-1.91,2.309-.407.485-.732.866-.871,1.053-1.1,1.441-2.244,2.953-3.323,4.55a31.438,31.438,0,0,0-3.76,7.185c-.179.518-.352,1.035-.491,1.567A18.9,18.9,0,0,0,36.1,46.686c2.334,4.553,6.389,7.754,10.311,10.847a70.725,70.725,0,0,1,6.046,5.154,24.076,24.076,0,0,1,5.592,8.047l.075.194c.076.192.152.389.2.534l.133.363a27.038,27.038,0,0,1,.77,3.033,23.843,23.843,0,0,1-4.206,18.233l.005.008A28.718,28.718,0,0,0,69.1,81.878a28.071,28.071,0,0,0,4.448-15.513Z" transform="translate(287.701 -4.593)" fill="#9fb9d9"></path><path id="Path_3936" data-name="Path 3936" d="M46.6,55.631C40.435,50.641,33.516,45.043,32.624,34.1a.021.021,0,0,0-.038-.008l-.179.262c-.85,1.25-1.727,2.541-2.465,3.864l-.636,1.136A81.641,81.641,0,0,0,24.17,49.66a33.162,33.162,0,0,0-1.662,8.486,28.283,28.283,0,0,0,4.164,16.878c3.65,5.779,9.066,10.128,14.491,11.64a14.051,14.051,0,0,0,3.741.516c.167,0,.333,0,.5-.008a12.852,12.852,0,0,0,11.253-7.715,14.782,14.782,0,0,0,1.357-5.648c.217-8.768-5.432-13.339-11.413-18.178" transform="translate(283.545 1.501)" fill="#003963"></path><path id="Path_3937" data-name="Path 3937" d="M87.5,49.1h-12.4a.8.8,0,0,0-.775.824V71.137a.8.8,0,0,0,.775.825H87.5a.8.8,0,0,0,.775-.825V69.112a.8.8,0,0,0-.775-.824H78V62.277h7.979a.8.8,0,0,0,.775-.823V59.428a.8.8,0,0,0-.775-.825H78V52.772H87.5a.8.8,0,0,0,.775-.824V49.923A.8.8,0,0,0,87.5,49.1" transform="translate(301.975 6.838)" fill="#003963"></path><path id="Path_3938" data-name="Path 3938" d="M103.1,49.1h-2.133a.8.8,0,0,0-.775.824V64.149L91.009,49.466a.765.765,0,0,0-.645-.367H88.343a.8.8,0,0,0-.777.824V71.137a.8.8,0,0,0,.777.825h2.132a.8.8,0,0,0,.777-.825V56.861l9.184,14.731a.766.766,0,0,0,.646.37H103.1a.8.8,0,0,0,.775-.825V49.923a.8.8,0,0,0-.775-.824" transform="translate(306.684 6.838)" fill="#003963"></path><path id="Path_3939" data-name="Path 3939" d="M115.9,49.1H103.5a.8.8,0,0,0-.775.824V71.137a.8.8,0,0,0,.775.825h12.4a.8.8,0,0,0,.779-.825V69.112a.8.8,0,0,0-.779-.824H106.4V62.277h7.979a.8.8,0,0,0,.775-.823V59.428a.8.8,0,0,0-.775-.825H106.4V52.772H115.9a.8.8,0,0,0,.779-.824V49.923a.8.8,0,0,0-.779-.824" transform="translate(312.066 6.838)" fill="#003963"></path><path id="Path_3940" data-name="Path 3940" d="M120.067,52.772h4.555c1.2,0,3.209.4,3.209,3.079,0,2.654-2.01,3.05-3.209,3.05h-4.555Zm7.454,9.26a6.3,6.3,0,0,0,3.994-6.21,6.352,6.352,0,0,0-6.7-6.722h-7.659a.8.8,0,0,0-.775.823V71.138a.8.8,0,0,0,.775.825h2.132a.8.8,0,0,0,.777-.825V62.545h3.548l4.33,8.968a.772.772,0,0,0,.69.45h2.5a.775.775,0,0,0,.663-.4.878.878,0,0,0,.023-.81Z" transform="translate(316.922 6.838)" fill="#003963"></path><path id="Path_3941" data-name="Path 3941" d="M145.244,59.276H138.2a.8.8,0,0,0-.775.825v1.935a.8.8,0,0,0,.775.825h4.135v.813A5.044,5.044,0,0,1,141.392,67a4,4,0,0,1-3.19,1.518,3.767,3.767,0,0,1-2.9-1.241c-1.031-1.124-1.18-2.438-1.18-6.7s.149-5.572,1.183-6.7a3.764,3.764,0,0,1,2.9-1.239c2.121,0,3.615,1.339,4.1,3.673a.791.791,0,0,0,.759.646h2.132a.76.76,0,0,0,.592-.29.862.862,0,0,0,.175-.665c-.645-4.211-3.761-7.04-7.754-7.04a7.414,7.414,0,0,0-5.543,2.328c-2.129,2.261-2.22,4.479-2.22,9.283s.091,7.023,2.22,9.284a7.418,7.418,0,0,0,5.543,2.327,7.562,7.562,0,0,0,5.907-2.713h0c1.395-1.643,1.912-3.269,1.912-6.006V60.1a.8.8,0,0,0-.777-.825" transform="translate(321.916 6.791)" fill="#003963"></path><path id="Path_3942" data-name="Path 3942" d="M158.5,49.1h-2.3a.773.773,0,0,0-.7.464l-3.966,8.648-4.013-8.652a.777.777,0,0,0-.7-.459h-2.3a.765.765,0,0,0-.659.393.869.869,0,0,0-.033.8L149.7,62.575v8.562a.8.8,0,0,0,.777.825h2.131a.8.8,0,0,0,.777-.825V62.572l5.81-12.279a.87.87,0,0,0-.033-.8.766.766,0,0,0-.661-.392" transform="translate(326.646 6.838)" fill="#003963"></path><path id="Path_3943" data-name="Path 3943" d="M163.983,63.623h-.861V61.117h.861a2.048,2.048,0,0,1,.638.089,1.074,1.074,0,0,1,.407.239.947.947,0,0,1,.236.371,1.563,1.563,0,0,1,.083.516,1.721,1.721,0,0,1-.085.556.968.968,0,0,1-.237.39,1.109,1.109,0,0,1-.412.252,1.917,1.917,0,0,1-.629.092m2.473-3.394a2.8,2.8,0,0,0-1.037-.6,4.505,4.505,0,0,0-1.437-.209h-2.559a.241.241,0,0,0-.232.249v8.358a.239.239,0,0,0,.232.247h1.465a.239.239,0,0,0,.233-.247V65.333h.861a4.278,4.278,0,0,0,1.415-.214,2.875,2.875,0,0,0,1.038-.619,2.548,2.548,0,0,0,.633-.961,3.42,3.42,0,0,0,.207-1.206,3.351,3.351,0,0,0-.2-1.166,2.435,2.435,0,0,0-.621-.938" transform="translate(332.844 10.506)" fill="#003963"></path><path id="Path_3944" data-name="Path 3944" d="M171.812,66.5H168.9v-6.83a.241.241,0,0,0-.233-.248H167.2a.241.241,0,0,0-.233.248v8.358a.24.24,0,0,0,.233.247h4.611a.239.239,0,0,0,.233-.247V66.744a.239.239,0,0,0-.233-.245" transform="translate(334.896 10.506)" fill="#003963"></path><path id="Path_3945" data-name="Path 3945" d="M178.464,66.676,177.88,66a.5.5,0,0,0-.607-.111.656.656,0,0,0-.167.122,2.278,2.278,0,0,1-.328.264,1.649,1.649,0,0,1-.339.169,1.945,1.945,0,0,1-.4.1,3.586,3.586,0,0,1-.511.034,2.017,2.017,0,0,1-.844-.179,1.96,1.96,0,0,1-.675-.514,2.627,2.627,0,0,1-.465-.844,3.625,3.625,0,0,1-.173-1.17,3.776,3.776,0,0,1,.164-1.168,2.424,2.424,0,0,1,.443-.839,1.877,1.877,0,0,1,.672-.516,2.09,2.09,0,0,1,.873-.179,2.492,2.492,0,0,1,.5.045,2.234,2.234,0,0,1,.38.111,1.608,1.608,0,0,1,.278.14c.089.056.164.106.232.152a2.021,2.021,0,0,0,.207.134.552.552,0,0,0,.6-.022.666.666,0,0,0,.164-.176l.491-.724a.254.254,0,0,0-.027-.32,3.872,3.872,0,0,0-1.2-.839,3.965,3.965,0,0,0-1.62-.32,4.076,4.076,0,0,0-1.667.336,3.841,3.841,0,0,0-1.305.937,4.26,4.26,0,0,0-.85,1.434,5.332,5.332,0,0,0-.3,1.815,5.694,5.694,0,0,0,.276,1.8,4.217,4.217,0,0,0,.809,1.437,3.73,3.73,0,0,0,1.273.945,4.023,4.023,0,0,0,1.668.336,4.064,4.064,0,0,0,1.775-.356A3.407,3.407,0,0,0,178.472,67a.257.257,0,0,0-.008-.323" transform="translate(336.475 10.481)" fill="#003963"></path><path id="Path_3946" data-name="Path 3946" d="M87.169,36.85a6.506,6.506,0,0,0-4.021-1.721l-2.324-.388a4.5,4.5,0,0,1-2.227-.912,2.415,2.415,0,0,1-.629-1.85c0-2,1.262-3.139,3.462-3.139a5.291,5.291,0,0,1,4.122,1.62.746.746,0,0,0,1.084-.014l1.376-1.46a.856.856,0,0,0,.226-.609.842.842,0,0,0-.262-.591,8.584,8.584,0,0,0-6.462-2.532c-4.359,0-7.174,2.663-7.174,6.783a6.061,6.061,0,0,0,1.808,4.612A7.516,7.516,0,0,0,80.2,38.456l2.319.356c1.385.23,1.766.409,2.219.848a2.618,2.618,0,0,1,.718,2.032c0,2.707-2.486,3.111-3.967,3.111a5.873,5.873,0,0,1-4.9-2.053.742.742,0,0,0-1.1,0l-1.431,1.519a.861.861,0,0,0-.005,1.16,9.167,9.167,0,0,0,7.373,3.047c4.664,0,7.677-2.686,7.677-6.843a6.314,6.314,0,0,0-1.937-4.783" transform="translate(301.803 -1.635)" fill="#003963"></path><path id="Path_3947" data-name="Path 3947" d="M95.281,28.929a3.839,3.839,0,0,1,2.9,1.246c1.033,1.122,1.179,2.437,1.179,6.691s-.146,5.57-1.175,6.687a4,4,0,0,1-5.8.007c-1.034-1.124-1.182-2.436-1.182-6.694s.148-5.572,1.178-6.689a3.843,3.843,0,0,1,2.9-1.248m0,19.547a7.385,7.385,0,0,0,5.515-2.327c2.155-2.291,2.246-4.5,2.246-9.283s-.091-6.994-2.246-9.284a7.734,7.734,0,0,0-11.06,0c-2.129,2.262-2.219,4.481-2.219,9.284s.089,7.022,2.219,9.283a7.417,7.417,0,0,0,5.545,2.327" transform="translate(306.666 -1.635)" fill="#003963"></path><path id="Path_3948" data-name="Path 3948" d="M116.876,25.387h-2.133a.8.8,0,0,0-.775.824V40.246c0,2.739-1.6,4.509-4.08,4.509-2.5,0-4.05-1.728-4.05-4.509V26.211a.8.8,0,0,0-.775-.824H102.93a.8.8,0,0,0-.777.824V40.424c0,4.638,3.254,8,7.735,8a7.628,7.628,0,0,0,7.763-8V26.211a.8.8,0,0,0-.775-.824" transform="translate(311.865 -1.588)" fill="#003963"></path><path id="Path_3949" data-name="Path 3949" d="M132.449,25.387h-2.133a.8.8,0,0,0-.775.824V40.437l-9.185-14.682a.764.764,0,0,0-.645-.367H117.69a.8.8,0,0,0-.777.824V47.426a.8.8,0,0,0,.777.824h2.133a.8.8,0,0,0,.775-.824V33.149l9.184,14.733a.766.766,0,0,0,.648.369h2.019a.8.8,0,0,0,.777-.824V26.211a.8.8,0,0,0-.777-.824" transform="translate(317.111 -1.588)" fill="#003963"></path><path id="Path_3950" data-name="Path 3950" d="M135.751,29.061h3.575a4.063,4.063,0,0,1,3.35,1.277l.011.012c1.11,1.254,1.11,3.9,1.11,6.469s0,5.214-1.121,6.48a4.063,4.063,0,0,1-3.35,1.277h-3.575Zm3.939-3.674h-6.846a.8.8,0,0,0-.777.824V47.426a.8.8,0,0,0,.777.824h6.846a7.168,7.168,0,0,0,5.817-2.5c1.973-2.263,1.973-5.654,1.973-8.932s0-6.671-1.973-8.933a7.168,7.168,0,0,0-5.817-2.5" transform="translate(322.496 -1.588)" fill="#003963"></path></g></svg>