<?xml version="1.0" encoding="utf-8"?>
<!-- Generator: Adobe Illustrator 25.3.1, SVG Export Plug-In . SVG Version: 6.00 Build 0)  -->
<svg version="1.1"
	 id="svg4170" xmlns:cc="http://creativecommons.org/ns#" xmlns:dc="http://purl.org/dc/elements/1.1/" xmlns:rdf="http://www.w3.org/1999/02/22-rdf-syntax-ns#" xmlns:svg="http://www.w3.org/2000/svg"
	 xmlns="http://www.w3.org/2000/svg" xmlns:xlink="http://www.w3.org/1999/xlink" x="0px" y="0px" viewBox="0 0 481.8 75.4"
	 style="enable-background:new 0 0 481.8 75.4;" xml:space="preserve">
<style type="text/css">
	.st0{fill:#FFFFFF;}
</style>
<g id="layer1" transform="translate(-63.98816,-483.85435)">
	<g id="layer1-8" transform="matrix(0.67987825,0,0,0.67987825,73.704242,173.51501)">
		<g id="g3701" transform="matrix(5.1539048,0,0,5.1539048,-694.56955,-721.08885)">
			<g id="g3009" transform="matrix(1.25,0,0,-1.25,131.99286,228.47763)">
				<path id="path3011" class="st0" d="M0,0h35.4l-2.1-1.1l0-7.3L29.8-15l1.3-2.3L0,0"/>
			</g>
			<g id="g3013" transform="matrix(1.25,0,0,-1.25,264.91661,232.58138)">
				<path id="path3015" class="st0" d="M-21.3,0.7L-21.3,0.7l-2-3.5h3.8L-21.3,0.7 M-24.3-4.9l-0.8-1.9h-4.3l5.2,10.1h5.8l5.3-10.1
					h-4.3l-0.8,1.9L-24.3-4.9"/>
			</g>
			<g id="g3017" transform="matrix(1.25,0,0,-1.25,222.43786,232.58138)">
				<path id="path3019" class="st0" d="M-14.5,0.7L-14.5,0.7l-2-3.5h3.8L-14.5,0.7 M-17.5-4.9l-0.8-1.9h-4.3l5.2,10.1h5.8l5.3-10.1
					h-4.3l-0.8,1.9L-17.5-4.9"/>
			</g>
			<g id="g3021" transform="matrix(1.25,0,0,-1.25,289.61286,228.52763)">
				<path id="path3023" class="st0" d="M-25.2,0h3.9l-4.1-4.1l5.1-5.9h-4.2l-5.3,5.9l0-1.6v-4.4h-3.1V0h3.1v-4.2h0L-25.2,0"/>
			</g>
			<path id="path3025" class="st0" d="M265.5,241.1h4v-12.6h-4V241.1z"/>
			<g id="g3027" transform="matrix(1.25,0,0,-1.25,251.76661,232.15013)">
				<path id="path3029" class="st0" d="M-19.2,0.6v2.3h-10.7V0.8h5.9l-5.8-5.6v-2.4h10.7v2h-5.8L-19.2,0.6"/>
			</g>
			<g id="g3031" transform="matrix(1.25,0,0,-1.25,213.63286,228.47763)">
				<path id="path3033" class="st0" d="M-13.1,0h-4.1l-2.7-3.6L-22.5,0h-4.1l5.1-6.8v-3.3h3.2v3.3L-13.1,0"/>
			</g>
		</g>
	</g>
</g>
</svg>
